<svg width="1200" height="800" viewBox="0 0 1200 800" xmlns="http://www.w3.org/2000/svg">
  <defs>
    <linearGradient id="g" x1="0" y1="0" x2="1" y2="1">
      <stop offset="0%" stop-color="#166534"/>
      <stop offset="100%" stop-color="#0f172a"/>
    </linearGradient>
  </defs>
  <rect width="1200" height="800" fill="url(#g)"/>
  <circle cx="950" cy="120" r="90" fill="#facc15" opacity="0.85"/>
  <path d="M0 650 C180 560 300 620 460 520 C620 420 760 470 900 370 C1020 285 1110 310 1200 250 L1200 800 L0 800 Z" fill="#052e16" opacity="0.75"/>
  <path d="M0 720 C190 640 320 680 500 590 C680 500 820 550 980 460 C1080 405 1140 420 1200 390 L1200 800 L0 800 Z" fill="#14532d" opacity="0.9"/>
  <text x="70" y="145" font-family="Arial" font-size="58" fill="#ffffff" font-weight="700">Eventos Chiapas</text>
  <text x="75" y="205" font-family="Arial" font-size="28" fill="#dcfce7">Cultura • Música • Tradición</text>
</svg>
